<?xml version="1.0" encoding="UTF-8" standalone="no"?>
<!DOCTYPE svg PUBLIC "-//W3C//DTD SVG 1.1//EN"
 "http://www.w3.org/Graphics/SVG/1.1/DTD/svg11.dtd">
<!-- Generated by graphviz version 2.44.1 (20200629.0800)
 -->
<!-- Title: classes_phi.field Pages: 1 -->
<svg width="847pt" height="264pt"
 viewBox="0.00 0.00 847.00 264.00" xmlns="http://www.w3.org/2000/svg" xmlns:xlink="http://www.w3.org/1999/xlink">
<g id="graph0" class="graph" transform="scale(1 1) rotate(0) translate(4 260)">
<title>classes_phi.field</title>
<polygon fill="white" stroke="transparent" points="-4,4 -4,-260 843,-260 843,4 -4,4"/>
<!-- 0 -->
<g id="node1" class="node">
<title>0</title>
<polygon fill="none" stroke="black" points="391,-146.5 391,-182.5 481,-182.5 481,-146.5 391,-146.5"/>
<text text-anchor="middle" x="436" y="-160.8" font-family="Times New Roman,serif" font-size="14.00">AnalyticField</text>
</g>
<!-- 5 -->
<g id="node6" class="node">
<title>5</title>
<polygon fill="none" stroke="black" points="160,-219.5 160,-255.5 214,-255.5 214,-219.5 160,-219.5"/>
<text text-anchor="middle" x="187" y="-233.8" font-family="Times New Roman,serif" font-size="14.00">Field</text>
</g>
<!-- 0&#45;&gt;5 -->
<g id="edge1" class="edge">
<title>0&#45;&gt;5</title>
<path fill="none" stroke="black" d="M390.91,-178.36C343.06,-192 268.36,-213.3 223.89,-225.98"/>
<polygon fill="none" stroke="black" points="222.73,-222.67 214.08,-228.78 224.65,-229.4 222.73,-222.67"/>
</g>
<!-- 1 -->
<g id="node2" class="node">
<title>1</title>
<polygon fill="none" stroke="black" points="245.5,-73.5 245.5,-109.5 352.5,-109.5 352.5,-73.5 245.5,-73.5"/>
<text text-anchor="middle" x="299" y="-87.8" font-family="Times New Roman,serif" font-size="14.00">AngularVelocity</text>
</g>
<!-- 1&#45;&gt;0 -->
<g id="edge2" class="edge">
<title>1&#45;&gt;0</title>
<path fill="none" stroke="black" d="M331.81,-109.51C350.49,-119.18 374.07,-131.4 394.07,-141.77"/>
<polygon fill="none" stroke="black" points="392.49,-144.89 402.98,-146.39 395.71,-138.68 392.49,-144.89"/>
</g>
<!-- 2 -->
<g id="node3" class="node">
<title>2</title>
<polygon fill="none" stroke="black" points="733.5,-73.5 733.5,-109.5 798.5,-109.5 798.5,-73.5 733.5,-73.5"/>
<text text-anchor="middle" x="766" y="-87.8" font-family="Times New Roman,serif" font-size="14.00">Backend</text>
</g>
<!-- 3 -->
<g id="node4" class="node">
<title>3</title>
<polygon fill="none" stroke="black" points="0,-0.5 0,-36.5 92,-36.5 92,-0.5 0,-0.5"/>
<text text-anchor="middle" x="46" y="-14.8" font-family="Times New Roman,serif" font-size="14.00">CenteredGrid</text>
</g>
<!-- 6 -->
<g id="node7" class="node">
<title>6</title>
<polygon fill="none" stroke="black" points="75,-73.5 75,-109.5 129,-109.5 129,-73.5 75,-73.5"/>
<text text-anchor="middle" x="102" y="-87.8" font-family="Times New Roman,serif" font-size="14.00">Grid</text>
</g>
<!-- 3&#45;&gt;6 -->
<g id="edge3" class="edge">
<title>3&#45;&gt;6</title>
<path fill="none" stroke="black" d="M59.56,-36.69C66.37,-45.32 74.75,-55.94 82.25,-65.47"/>
<polygon fill="none" stroke="black" points="79.63,-67.79 88.57,-73.47 85.12,-63.45 79.63,-67.79"/>
</g>
<!-- 4 -->
<g id="node5" class="node">
<title>4</title>
<polygon fill="none" stroke="black" points="27.5,-146.5 27.5,-182.5 122.5,-182.5 122.5,-146.5 27.5,-146.5"/>
<text text-anchor="middle" x="75" y="-160.8" font-family="Times New Roman,serif" font-size="14.00">ConstantField</text>
</g>
<!-- 4&#45;&gt;5 -->
<g id="edge4" class="edge">
<title>4&#45;&gt;5</title>
<path fill="none" stroke="black" d="M101.83,-182.51C116.68,-191.92 135.33,-203.74 151.39,-213.93"/>
<polygon fill="none" stroke="black" points="149.68,-216.99 160,-219.39 153.43,-211.08 149.68,-216.99"/>
</g>
<!-- 10 -->
<g id="node11" class="node">
<title>10</title>
<polygon fill="none" stroke="black" points="140.5,-146.5 140.5,-182.5 233.5,-182.5 233.5,-146.5 140.5,-146.5"/>
<text text-anchor="middle" x="187" y="-160.8" font-family="Times New Roman,serif" font-size="14.00">SampledField</text>
</g>
<!-- 6&#45;&gt;10 -->
<g id="edge5" class="edge">
<title>6&#45;&gt;10</title>
<path fill="none" stroke="black" d="M122.58,-109.69C133.43,-118.76 146.92,-130.02 158.75,-139.9"/>
<polygon fill="none" stroke="black" points="156.69,-142.75 166.61,-146.47 161.18,-137.37 156.69,-142.75"/>
</g>
<!-- 7 -->
<g id="node8" class="node">
<title>7</title>
<polygon fill="none" stroke="black" points="370.5,-73.5 370.5,-109.5 501.5,-109.5 501.5,-73.5 370.5,-73.5"/>
<text text-anchor="middle" x="436" y="-87.8" font-family="Times New Roman,serif" font-size="14.00">HardGeometryMask</text>
</g>
<!-- 7&#45;&gt;0 -->
<g id="edge6" class="edge">
<title>7&#45;&gt;0</title>
<path fill="none" stroke="black" d="M436,-109.69C436,-117.71 436,-127.45 436,-136.43"/>
<polygon fill="none" stroke="black" points="432.5,-136.47 436,-146.47 439.5,-136.47 432.5,-136.47"/>
</g>
<!-- 8 -->
<g id="node9" class="node">
<title>8</title>
<polygon fill="none" stroke="black" points="520,-73.5 520,-109.5 574,-109.5 574,-73.5 520,-73.5"/>
<text text-anchor="middle" x="547" y="-87.8" font-family="Times New Roman,serif" font-size="14.00">Noise</text>
</g>
<!-- 8&#45;&gt;0 -->
<g id="edge7" class="edge">
<title>8&#45;&gt;0</title>
<path fill="none" stroke="black" d="M520.41,-109.51C505.69,-118.92 487.21,-130.74 471.29,-140.93"/>
<polygon fill="none" stroke="black" points="469.29,-138.05 462.76,-146.39 473.07,-143.95 469.29,-138.05"/>
</g>
<!-- 9 -->
<g id="node10" class="node">
<title>9</title>
<polygon fill="none" stroke="black" points="147,-73.5 147,-109.5 227,-109.5 227,-73.5 147,-73.5"/>
<text text-anchor="middle" x="187" y="-87.8" font-family="Times New Roman,serif" font-size="14.00">PointCloud</text>
</g>
<!-- 9&#45;&gt;10 -->
<g id="edge8" class="edge">
<title>9&#45;&gt;10</title>
<path fill="none" stroke="black" d="M187,-109.69C187,-117.71 187,-127.45 187,-136.43"/>
<polygon fill="none" stroke="black" points="183.5,-136.47 187,-146.47 190.5,-136.47 183.5,-136.47"/>
</g>
<!-- 10&#45;&gt;5 -->
<g id="edge9" class="edge">
<title>10&#45;&gt;5</title>
<path fill="none" stroke="black" d="M187,-182.69C187,-190.71 187,-200.45 187,-209.43"/>
<polygon fill="none" stroke="black" points="183.5,-209.47 187,-219.47 190.5,-209.47 183.5,-209.47"/>
</g>
<!-- 11 -->
<g id="node12" class="node">
<title>11</title>
<polygon fill="none" stroke="black" points="372.5,-0.5 372.5,-36.5 499.5,-36.5 499.5,-0.5 372.5,-0.5"/>
<text text-anchor="middle" x="436" y="-14.8" font-family="Times New Roman,serif" font-size="14.00">SoftGeometryMask</text>
</g>
<!-- 11&#45;&gt;7 -->
<g id="edge10" class="edge">
<title>11&#45;&gt;7</title>
<path fill="none" stroke="black" d="M436,-36.69C436,-44.71 436,-54.45 436,-63.43"/>
<polygon fill="none" stroke="black" points="432.5,-63.47 436,-73.47 439.5,-63.47 432.5,-63.47"/>
</g>
<!-- 12 -->
<g id="node13" class="node">
<title>12</title>
<polygon fill="none" stroke="black" points="110,-0.5 110,-36.5 208,-36.5 208,-0.5 110,-0.5"/>
<text text-anchor="middle" x="159" y="-14.8" font-family="Times New Roman,serif" font-size="14.00">StaggeredGrid</text>
</g>
<!-- 12&#45;&gt;6 -->
<g id="edge11" class="edge">
<title>12&#45;&gt;6</title>
<path fill="none" stroke="black" d="M145.2,-36.69C138.27,-45.32 129.74,-55.94 122.1,-65.47"/>
<polygon fill="none" stroke="black" points="119.2,-63.48 115.67,-73.47 124.66,-67.86 119.2,-63.48"/>
</g>
<!-- 13 -->
<g id="node14" class="node">
<title>13</title>
<polygon fill="none" stroke="black" points="693,-0.5 693,-36.5 839,-36.5 839,-0.5 693,-0.5"/>
<text text-anchor="middle" x="766" y="-14.8" font-family="Times New Roman,serif" font-size="14.00">SymbolicFieldBackend</text>
</g>
<!-- 13&#45;&gt;2 -->
<g id="edge12" class="edge">
<title>13&#45;&gt;2</title>
<path fill="none" stroke="black" d="M766,-36.69C766,-44.71 766,-54.45 766,-63.43"/>
<polygon fill="none" stroke="black" points="762.5,-63.47 766,-73.47 769.5,-63.47 762.5,-63.47"/>
</g>
<!-- 14 -->
<g id="node15" class="node">
<title>14</title>
<polygon fill="none" stroke="black" points="592.5,-73.5 592.5,-109.5 715.5,-109.5 715.5,-73.5 592.5,-73.5"/>
<text text-anchor="middle" x="654" y="-87.8" font-family="Times New Roman,serif" font-size="14.00">_SymbolicOpField</text>
</g>
<!-- 14&#45;&gt;0 -->
<g id="edge13" class="edge">
<title>14&#45;&gt;0</title>
<path fill="none" stroke="black" d="M601.78,-109.51C568.31,-120.41 524.92,-134.54 490.92,-145.61"/>
<polygon fill="none" stroke="black" points="489.57,-142.37 481.15,-148.8 491.74,-149.03 489.57,-142.37"/>
</g>
</g>
</svg>
