<?xml version="1.0" encoding="UTF-8" standalone="no"?>
<!DOCTYPE svg PUBLIC "-//W3C//DTD SVG 1.1//EN"
 "http://www.w3.org/Graphics/SVG/1.1/DTD/svg11.dtd">
<!-- Generated by graphviz version 2.44.1 (20200629.0800)
 -->
<!-- Title: classes_phi.geom Pages: 1 -->
<svg width="1006pt" height="191pt"
 viewBox="0.00 0.00 1005.50 191.00" xmlns="http://www.w3.org/2000/svg" xmlns:xlink="http://www.w3.org/1999/xlink">
<g id="graph0" class="graph" transform="scale(1 1) rotate(0) translate(4 187)">
<title>classes_phi.geom</title>
<polygon fill="white" stroke="transparent" points="-4,4 -4,-187 1001.5,-187 1001.5,4 -4,4"/>
<!-- 0 -->
<g id="node1" class="node">
<title>0</title>
<polygon fill="none" stroke="black" points="661,-73.5 661,-109.5 749,-109.5 749,-73.5 661,-73.5"/>
<text text-anchor="middle" x="705" y="-87.8" font-family="Times New Roman,serif" font-size="14.00">AbstractBox</text>
</g>
<!-- 5 -->
<g id="node6" class="node">
<title>5</title>
<polygon fill="none" stroke="black" points="321,-146.5 321,-182.5 393,-182.5 393,-146.5 321,-146.5"/>
<text text-anchor="middle" x="357" y="-160.8" font-family="Times New Roman,serif" font-size="14.00">Geometry</text>
</g>
<!-- 0&#45;&gt;5 -->
<g id="edge1" class="edge">
<title>0&#45;&gt;5</title>
<path fill="none" stroke="black" d="M660.89,-107.58C657.89,-108.44 654.91,-109.26 652,-110 565.16,-132.1 461.7,-148.67 403.25,-157.15"/>
<polygon fill="none" stroke="black" points="402.62,-153.71 393.22,-158.59 403.62,-160.64 402.62,-153.71"/>
</g>
<!-- 1 -->
<g id="node2" class="node">
<title>1</title>
<polygon fill="none" stroke="black" points="835.5,-0.5 835.5,-36.5 910.5,-36.5 910.5,-0.5 835.5,-0.5"/>
<text text-anchor="middle" x="873" y="-14.8" font-family="Times New Roman,serif" font-size="14.00">AxisOrder</text>
</g>
<!-- 2 -->
<g id="node3" class="node">
<title>2</title>
<polygon fill="none" stroke="black" points="603,-0.5 603,-36.5 657,-36.5 657,-0.5 603,-0.5"/>
<text text-anchor="middle" x="630" y="-14.8" font-family="Times New Roman,serif" font-size="14.00">Box</text>
</g>
<!-- 2&#45;&gt;0 -->
<g id="edge2" class="edge">
<title>2&#45;&gt;0</title>
<path fill="none" stroke="black" d="M648.16,-36.69C657.55,-45.58 669.18,-56.59 679.47,-66.33"/>
<polygon fill="none" stroke="black" points="677.34,-69.14 687.01,-73.47 682.16,-64.05 677.34,-69.14"/>
</g>
<!-- 3 -->
<g id="node4" class="node">
<title>3</title>
<polygon fill="none" stroke="black" points="928.5,-0.5 928.5,-36.5 997.5,-36.5 997.5,-0.5 928.5,-0.5"/>
<text text-anchor="middle" x="963" y="-14.8" font-family="Times New Roman,serif" font-size="14.00">BoxType</text>
</g>
<!-- 4 -->
<g id="node5" class="node">
<title>4</title>
<polygon fill="none" stroke="black" points="675.5,-0.5 675.5,-36.5 734.5,-36.5 734.5,-0.5 675.5,-0.5"/>
<text text-anchor="middle" x="705" y="-14.8" font-family="Times New Roman,serif" font-size="14.00">Cuboid</text>
</g>
<!-- 4&#45;&gt;0 -->
<g id="edge3" class="edge">
<title>4&#45;&gt;0</title>
<path fill="none" stroke="black" d="M705,-36.69C705,-44.71 705,-54.45 705,-63.43"/>
<polygon fill="none" stroke="black" points="701.5,-63.47 705,-73.47 708.5,-63.47 701.5,-63.47"/>
</g>
<!-- 6 -->
<g id="node7" class="node">
<title>6</title>
<polygon fill="none" stroke="black" points="0,-73.5 0,-109.5 104,-109.5 104,-73.5 0,-73.5"/>
<text text-anchor="middle" x="52" y="-87.8" font-family="Times New Roman,serif" font-size="14.00">GeometryStack</text>
</g>
<!-- 6&#45;&gt;5 -->
<g id="edge4" class="edge">
<title>6&#45;&gt;5</title>
<path fill="none" stroke="black" d="M104.18,-107.71C107.16,-108.5 110.12,-109.27 113,-110 181.5,-127.32 261.63,-144.26 310.85,-154.29"/>
<polygon fill="none" stroke="black" points="310.37,-157.77 320.86,-156.32 311.76,-150.91 310.37,-157.77"/>
</g>
<!-- 7 -->
<g id="node8" class="node">
<title>7</title>
<polygon fill="none" stroke="black" points="753,-0.5 753,-36.5 817,-36.5 817,-0.5 753,-0.5"/>
<text text-anchor="middle" x="785" y="-14.8" font-family="Times New Roman,serif" font-size="14.00">GridCell</text>
</g>
<!-- 7&#45;&gt;0 -->
<g id="edge5" class="edge">
<title>7&#45;&gt;0</title>
<path fill="none" stroke="black" d="M765.63,-36.69C755.51,-45.67 742.96,-56.81 731.91,-66.61"/>
<polygon fill="none" stroke="black" points="729.34,-64.22 724.19,-73.47 733.99,-69.45 729.34,-64.22"/>
</g>
<!-- 8 -->
<g id="node9" class="node">
<title>8</title>
<polygon fill="none" stroke="black" points="122,-73.5 122,-109.5 238,-109.5 238,-73.5 122,-73.5"/>
<text text-anchor="middle" x="180" y="-87.8" font-family="Times New Roman,serif" font-size="14.00">RotatedGeometry</text>
</g>
<!-- 8&#45;&gt;5 -->
<g id="edge6" class="edge">
<title>8&#45;&gt;5</title>
<path fill="none" stroke="black" d="M222.4,-109.51C249.29,-120.3 284.07,-134.25 311.54,-145.26"/>
<polygon fill="none" stroke="black" points="310.34,-148.56 320.93,-149.03 312.95,-142.06 310.34,-148.56"/>
</g>
<!-- 9 -->
<g id="node10" class="node">
<title>9</title>
<polygon fill="none" stroke="black" points="256,-73.5 256,-109.5 312,-109.5 312,-73.5 256,-73.5"/>
<text text-anchor="middle" x="284" y="-87.8" font-family="Times New Roman,serif" font-size="14.00">Sphere</text>
</g>
<!-- 9&#45;&gt;5 -->
<g id="edge7" class="edge">
<title>9&#45;&gt;5</title>
<path fill="none" stroke="black" d="M301.67,-109.69C310.82,-118.58 322.14,-129.59 332.15,-139.33"/>
<polygon fill="none" stroke="black" points="329.88,-142.01 339.49,-146.47 334.76,-136.99 329.88,-142.01"/>
</g>
<!-- 10 -->
<g id="node11" class="node">
<title>10</title>
<polygon fill="none" stroke="black" points="330,-73.5 330,-109.5 384,-109.5 384,-73.5 330,-73.5"/>
<text text-anchor="middle" x="357" y="-87.8" font-family="Times New Roman,serif" font-size="14.00">Union</text>
</g>
<!-- 10&#45;&gt;5 -->
<g id="edge8" class="edge">
<title>10&#45;&gt;5</title>
<path fill="none" stroke="black" d="M357,-109.69C357,-117.71 357,-127.45 357,-136.43"/>
<polygon fill="none" stroke="black" points="353.5,-136.47 357,-146.47 360.5,-136.47 353.5,-136.47"/>
</g>
<!-- 11 -->
<g id="node12" class="node">
<title>11</title>
<polygon fill="none" stroke="black" points="402.5,-73.5 402.5,-109.5 527.5,-109.5 527.5,-73.5 402.5,-73.5"/>
<text text-anchor="middle" x="465" y="-87.8" font-family="Times New Roman,serif" font-size="14.00">_InvertedGeometry</text>
</g>
<!-- 11&#45;&gt;5 -->
<g id="edge9" class="edge">
<title>11&#45;&gt;5</title>
<path fill="none" stroke="black" d="M439.13,-109.51C424.94,-118.83 407.16,-130.53 391.77,-140.64"/>
<polygon fill="none" stroke="black" points="389.47,-137.97 383.03,-146.39 393.31,-143.82 389.47,-137.97"/>
</g>
<!-- 12 -->
<g id="node13" class="node">
<title>12</title>
<polygon fill="none" stroke="black" points="545.5,-73.5 545.5,-109.5 642.5,-109.5 642.5,-73.5 545.5,-73.5"/>
<text text-anchor="middle" x="594" y="-87.8" font-family="Times New Roman,serif" font-size="14.00">_NoGeometry</text>
</g>
<!-- 12&#45;&gt;5 -->
<g id="edge10" class="edge">
<title>12&#45;&gt;5</title>
<path fill="none" stroke="black" d="M545.27,-107.21C542.13,-108.16 539.02,-109.09 536,-110 490.71,-123.6 438.95,-139.06 402.78,-149.85"/>
<polygon fill="none" stroke="black" points="401.59,-146.56 393.01,-152.77 403.59,-153.26 401.59,-146.56"/>
</g>
</g>
</svg>
